<svg xmlns="http://www.w3.org/2000/svg" width="15.969" height="15"><defs><filter id="a" x="0" y="-.031" width="15.969" height="15.063" filterUnits="userSpaceOnUse"><feFlood result="flood" flood-color="#6e774a"/><feComposite result="composite" operator="in" in2="SourceGraphic"/><feBlend result="blend" in2="SourceGraphic"/></filter></defs><path data-name="1" d="M15.292 5.11l-4.407-.41a.761.761 0 01-.631-.462L8.675.451a.759.759 0 00-1.4 0L5.708 4.235a.745.745 0 01-.631.462L.67 5.11a.752.752 0 00-.429 1.311l3.321 2.885a.742.742 0 01.24.737l-1 4.046a.76.76 0 001.124.825L7.6 12.777a.772.772 0 01.77 0l3.674 2.136a.757.757 0 001.124-.825l-.985-4.046a.742.742 0 01.24-.737l3.321-2.885a.761.761 0 00-.452-1.31z" fill-rule="evenodd" filter="url(#a)"/></svg>